<?xml version="1.0" standalone="no"?>
<!DOCTYPE svg PUBLIC "-//W3C//DTD SVG 20010904//EN"
 "http://www.w3.org/TR/2001/REC-SVG-20010904/DTD/svg10.dtd">
<svg version="1.0" xmlns="http://www.w3.org/2000/svg"
 width="294.000000pt" height="216.000000pt" viewBox="0 0 294.000000 216.000000"
 preserveAspectRatio="xMidYMid meet">

<g transform="translate(0.000000,216.000000) scale(0.100000,-0.100000)"
fill="#000000" stroke="none">
<path d="M750 1894 c-19 -2 -78 -9 -130 -15 -52 -6 -120 -13 -150 -15 -71 -4
-174 -54 -201 -97 -18 -29 -20 -43 -15 -137 4 -58 9 -116 13 -129 6 -22 4 -23
-28 -17 -108 23 -190 11 -205 -29 -12 -30 10 -33 120 -18 60 7 111 12 113 9 3
-3 1 -18 -3 -33 -5 -15 -7 -320 -4 -678 l5 -650 168 -3 167 -2 0 -40 0 -40
870 0 870 0 0 40 0 40 163 0 c113 0 167 4 175 12 16 16 17 1299 2 1329 -16 29
1 31 120 15 106 -14 128 -10 116 19 -15 40 -97 52 -204 30 l-33 -7 8 68 c4 38
8 99 8 136 0 63 -2 69 -34 102 -42 43 -124 76 -206 82 -33 2 -87 9 -120 15
-57 11 -1498 22 -1585 13z m1382 -74 c279 -15 435 -47 483 -100 13 -14 15 -29
10 -57 -10 -60 -17 -68 -52 -50 -42 22 -133 44 -263 63 -95 14 -223 18 -740
21 -633 5 -804 -1 -1001 -33 -50 -8 -116 -24 -147 -35 -84 -30 -84 -30 -98 25
-12 47 -12 49 13 72 55 51 215 82 473 94 248 10 1120 11 1322 0z"/>
</g>
</svg>
